<?xml version="1.0" encoding="UTF-8"?>
<!-- Generated by Pixelmator Pro 3.3.6 -->
<svg width="150" height="135" viewBox="0 0 150 135" xmlns="http://www.w3.org/2000/svg">
    <path id="Path" fill="#0b996e" stroke="none" d="M 123.042007 72.800705 C 123.042007 66.113251 127.290604 61.409996 133.333801 61.409996 C 139.376999 61.409996 143.693405 66.11055 143.693405 72.800705 C 143.693405 79.490845 139.378052 83.925003 133.333801 83.925003 C 127.289703 83.925003 123.042007 79.2882 123.042007 72.800705 Z M 116.733597 72.800705 C 116.733597 82.667999 123.639305 89.621849 133.332901 89.621849 C 143.026505 89.621849 150 82.667999 150 72.800705 C 150 62.933403 143.094299 55.715988 133.332901 55.715988 C 123.571503 55.715988 116.733597 62.802902 116.733597 72.800705 Z M 84.528152 56.112793 L 97.5438 89.223152 L 103.653755 89.223152 L 116.668655 56.112793 L 110.094902 56.112793 L 100.665604 81.674698 L 100.532097 81.674698 L 91.102798 56.112793 L 84.528152 56.112793 Z M 59.228397 71.607452 C 59.626198 65.514 63.677254 61.409996 69.189148 61.409996 C 73.9692 61.409996 77.55555 64.456802 78.087006 69.026848 L 67.063347 69.026848 C 63.14595 69.026848 61.020149 69.490349 59.42865 71.610298 L 59.228397 71.610298 L 59.228397 71.608505 L 59.228397 71.607452 Z M 52.92075 72.600899 C 52.92075 82.468201 59.893349 89.619003 69.520195 89.619003 C 76.028099 89.619003 81.737404 86.308647 84.194244 81.075302 L 78.882751 78.425247 C 77.024101 81.868805 73.437752 83.922302 69.520195 83.922302 C 64.804199 83.922302 60.555603 80.345551 60.555603 76.901855 C 60.555603 75.114899 61.75095 74.31855 63.476997 74.31855 L 84.525299 74.31855 L 84.525299 72.531601 C 84.525299 62.597549 78.151054 55.710434 68.988747 55.710434 C 59.826599 55.710434 52.919853 62.797348 52.919853 72.598206 M 34.859852 89.219398 L 40.8363 89.219398 L 40.8363 68.892754 C 40.8363 64.522346 43.557297 61.409096 47.344051 61.409096 C 48.9384 61.409096 50.596649 61.939049 51.395252 62.6661 C 51.993446 61.076103 52.922699 59.488846 54.31665 57.898857 C 52.722298 56.575256 50.001301 55.712296 47.344051 55.712296 C 40.04055 55.712296 34.859852 61.1427 34.859852 68.890053 L 34.859852 89.221344 L 34.859852 89.219398 Z M 5.97645 67.304703 L 5.97645 51.143974 L 15.8037 51.143974 C 19.1229 51.143974 21.315449 53.064163 21.315449 55.977753 C 21.315449 59.288132 18.4608 61.804947 12.617866 63.725098 C 8.633565 64.982101 6.84174 66.042152 6.176775 67.301849 L 5.97645 67.303802 L 5.97645 67.304703 Z M 5.97645 83.529144 L 5.97645 76.775253 C 5.97645 73.795044 8.50002 70.881447 12.019666 69.754799 C 15.14145 68.694901 17.728951 67.63485 19.921499 66.511047 C 22.842899 68.234253 24.6348 71.211601 24.6348 74.324997 C 24.6348 79.622101 19.587601 83.529144 12.748634 83.529144 L 5.97645 83.529144 Z M 0 89.223152 L 13.280055 89.223152 C 23.37435 89.223152 30.942299 82.932602 30.942299 74.588547 C 30.942299 70.018501 28.619101 65.914497 24.50115 63.26445 C 26.626949 61.144501 27.62295 58.694328 27.62295 55.714142 C 27.62295 49.556755 23.17395 45.449997 16.468651 45.449997 L 0 45.449997 L 0 89.223152 Z"/>
</svg>
